<svg id="Capa_1" data-name="Capa 1" xmlns="http://www.w3.org/2000/svg" xmlns:xlink="http://www.w3.org/1999/xlink" viewBox="0 0 16 16"><defs><style>.cls-1{fill:url(#Agua_3);}.cls-2{fill:url(#Agua_3-2);}.cls-3{fill:url(#Agua_3-3);}.cls-4{fill:url(#Agua_3-4);}.cls-5{fill:url(#Agua_3-5);}.cls-6{fill:url(#Agua_3-6);}</style><linearGradient id="Agua_3" x1="0.29" y1="-2.65" x2="13.52" y2="15.63" gradientUnits="userSpaceOnUse"><stop offset="0" stop-color="#a1d1dc"/><stop offset="0.5" stop-color="#6cbbcb"/><stop offset="1" stop-color="#00a6bb"/></linearGradient><linearGradient id="Agua_3-2" x1="1.14" y1="-3.26" x2="14.37" y2="15.02" xlink:href="#Agua_3"/><linearGradient id="Agua_3-3" x1="2.16" y1="-4" x2="15.39" y2="14.28" xlink:href="#Agua_3"/><linearGradient id="Agua_3-4" x1="0.09" y1="-2.5" x2="13.31" y2="15.78" xlink:href="#Agua_3"/><linearGradient id="Agua_3-5" x1="-2.27" y1="-0.8" x2="10.96" y2="17.48" xlink:href="#Agua_3"/><linearGradient id="Agua_3-6" x1="0.15" y1="-2.55" x2="13.38" y2="15.74" xlink:href="#Agua_3"/></defs><path class="cls-1" d="M12.45,0H3.55A2.39,2.39,0,0,0,1.16,2.39V13.61A2.39,2.39,0,0,0,3.55,16h8.9a2.39,2.39,0,0,0,2.39-2.39V2.39A2.39,2.39,0,0,0,12.45,0Zm1.13,13.61a1.14,1.14,0,0,1-1.13,1.13H3.55a1.14,1.14,0,0,1-1.13-1.13V2.39A1.14,1.14,0,0,1,3.55,1.26h8.9a1.14,1.14,0,0,1,1.13,1.13Z"/><path class="cls-2" d="M3.81,6H11a.64.64,0,0,0,0-1.27H3.81a.63.63,0,0,0-.63.63A.64.64,0,0,0,3.81,6Z"/><path class="cls-3" d="M3.81,3.87H11a.64.64,0,0,0,.63-.63A.65.65,0,0,0,11,2.61H3.81a.63.63,0,0,0-.63.63.64.64,0,0,0,.63.63Z"/><path class="cls-4" d="M3.81,8.16h7.06a.64.64,0,0,0,0-1.27H3.81a.63.63,0,0,0-.63.63.64.64,0,0,0,.63.64Z"/><path class="cls-5" d="M3.81,10.3h3a.64.64,0,0,0,.63-.63A.65.65,0,0,0,6.8,9h-3a.64.64,0,0,0,0,1.27Z"/><path class="cls-6" d="M12.64,10.33l-.41.4L9.36,13.6a.64.64,0,0,1-.89,0L6.78,11.91a.63.63,0,0,1,.9-.89l1.24,1.24,2.82-2.83a.64.64,0,1,1,.9.9Z"/></svg>